<svg width="24" height="24" viewBox="0 0 24 24" fill="none" xmlns="http://www.w3.org/2000/svg">
<g filter="url(#filter0_i_63_18)">
<path fill-rule="evenodd" clip-rule="evenodd" d="M24 12C24 18.6274 18.6274 24 12 24C5.37258 24 0 18.6274 0 12C0 5.37258 5.37258 0 12 0C18.6274 0 24 5.37258 24 12ZM3.875 6.375H4.5H19.5H20.125V7V17V17.625H19.5H4.5H3.875V17V7V6.375ZM5.125 8.42145V15.5751L9.00475 11.9825L5.125 8.42145ZM17.9006 16.375H6.10097L9.92869 12.8306L10.6878 13.5273L10.6891 13.5285C11.0664 13.873 11.5657 14.019 12.0254 14.0188C12.4844 14.0186 12.9812 13.8726 13.3537 13.5324L14.1011 12.8511L17.9006 16.375ZM18.875 15.5739V8.4986L15.028 12.0059L18.875 15.5739ZM6.10583 7.625L11.5318 12.6053L11.5323 12.6057C11.6346 12.6988 11.8113 12.7689 12.0249 12.7688C12.2396 12.7687 12.414 12.6978 12.5109 12.6093L12.5112 12.609L17.9779 7.625H6.10583Z" fill="#5B5B5B"/>
</g>
<defs>
<filter id="filter0_i_63_18" x="0" y="0" width="24" height="28" filterUnits="userSpaceOnUse" color-interpolation-filters="sRGB">
<feFlood flood-opacity="0" result="BackgroundImageFix"/>
<feBlend mode="normal" in="SourceGraphic" in2="BackgroundImageFix" result="shape"/>
<feColorMatrix in="SourceAlpha" type="matrix" values="0 0 0 0 0 0 0 0 0 0 0 0 0 0 0 0 0 0 127 0" result="hardAlpha"/>
<feOffset dy="4"/>
<feGaussianBlur stdDeviation="2"/>
<feComposite in2="hardAlpha" operator="arithmetic" k2="-1" k3="1"/>
<feColorMatrix type="matrix" values="0 0 0 0 0 0 0 0 0 0 0 0 0 0 0 0 0 0 0.25 0"/>
<feBlend mode="normal" in2="shape" result="effect1_innerShadow_63_18"/>
</filter>
</defs>
</svg>
