<svg width="134" height="10" viewBox="0 0 134 10" fill="none" xmlns="http://www.w3.org/2000/svg">
<g filter="url(#filter0_i_17_119)">
<path d="M6.01172 6.7207C6.01172 7.47461 5.73828 8.0625 5.19141 8.48438C4.64453 8.90625 3.90234 9.11719 2.96484 9.11719C1.94922 9.11719 1.16797 8.98633 0.621094 8.72461V7.76367C0.972656 7.91211 1.35547 8.0293 1.76953 8.11523C2.18359 8.20117 2.59375 8.24414 3 8.24414C3.66406 8.24414 4.16406 8.11914 4.5 7.86914C4.83594 7.61523 5.00391 7.26367 5.00391 6.81445C5.00391 6.51758 4.94336 6.27539 4.82227 6.08789C4.70508 5.89648 4.50586 5.7207 4.22461 5.56055C3.94727 5.40039 3.52344 5.21875 2.95312 5.01562C2.15625 4.73047 1.58594 4.39258 1.24219 4.00195C0.902344 3.61133 0.732422 3.10156 0.732422 2.47266C0.732422 1.8125 0.980469 1.28711 1.47656 0.896484C1.97266 0.505859 2.62891 0.310547 3.44531 0.310547C4.29688 0.310547 5.08008 0.466797 5.79492 0.779297L5.48438 1.64648C4.77734 1.34961 4.08984 1.20117 3.42188 1.20117C2.89453 1.20117 2.48242 1.31445 2.18555 1.54102C1.88867 1.76758 1.74023 2.08203 1.74023 2.48438C1.74023 2.78125 1.79492 3.02539 1.9043 3.2168C2.01367 3.4043 2.19727 3.57812 2.45508 3.73828C2.7168 3.89453 3.11523 4.06836 3.65039 4.25977C4.54883 4.58008 5.16602 4.92383 5.50195 5.29102C5.8418 5.6582 6.01172 6.13477 6.01172 6.7207ZM10.0437 9V0.433594H11.0398V9H10.0437ZM19.4662 9L16.56 1.40625H16.5131C16.5678 2.00781 16.5952 2.72266 16.5952 3.55078V9H15.6752V0.433594H17.1752L19.8881 7.5H19.935L22.6713 0.433594H24.1596V9H23.1635V3.48047C23.1635 2.84766 23.1909 2.16016 23.2455 1.41797H23.1987L20.269 9H19.4662ZM34.2267 2.92969C34.2267 3.79688 33.9298 4.46484 33.3361 4.93359C32.7463 5.39844 31.9005 5.63086 30.799 5.63086H29.7912V9H28.7951V0.433594H31.0158C33.1564 0.433594 34.2267 1.26562 34.2267 2.92969ZM29.7912 4.77539H30.6877C31.5705 4.77539 32.2091 4.63281 32.6037 4.34766C32.9982 4.0625 33.1955 3.60547 33.1955 2.97656C33.1955 2.41016 33.0099 1.98828 32.6388 1.71094C32.2677 1.43359 31.6896 1.29492 30.9045 1.29492H29.7912V4.77539ZM38.3055 9V0.433594H39.3016V8.09766H43.0809V9H38.3055ZM48.9996 4.7168L51.2848 0.433594H52.3629L49.5035 5.67773V9H48.4957V5.72461L45.6422 0.433594H46.732L48.9996 4.7168ZM64.8265 9H62.0902L61.2698 5.26758C61.2308 5.11133 61.1683 4.80078 61.0823 4.33594C61.0003 3.87109 60.9398 3.48242 60.9007 3.16992C60.8695 3.42383 60.8187 3.74023 60.7484 4.11914C60.678 4.49414 60.6077 4.83984 60.5374 5.15625C60.471 5.47266 60.1878 6.75391 59.6878 9H56.9515L54.8304 0.433594H57.0628L57.9945 4.72852C58.2054 5.67773 58.3499 6.43359 58.428 6.99609C58.4788 6.59766 58.5687 6.05664 58.6976 5.37305C58.8304 4.68945 58.9534 4.12305 59.0667 3.67383L59.8226 0.433594H61.9671L62.6995 3.67383C62.8245 4.19336 62.9515 4.79297 63.0804 5.47266C63.2093 6.15234 63.2952 6.66016 63.3382 6.99609C63.389 6.5625 63.5277 5.81055 63.7542 4.74023L64.7034 0.433594H66.9359L64.8265 9ZM75.4092 9H70.3233V0.433594H75.4092V2.29102H72.6377V3.63867H75.2041V5.49609H72.6377V7.11328H75.4092V9ZM84.4451 9L84.0232 7.39453H81.24L80.8064 9H78.2634L81.0584 0.398438H84.1462L86.9763 9H84.4451ZM83.5427 5.49609L83.1736 4.08984C83.0877 3.77734 82.9822 3.37305 82.8572 2.87695C82.7361 2.38086 82.656 2.02539 82.617 1.81055C82.5818 2.00977 82.5115 2.33789 82.406 2.79492C82.3045 3.25195 82.0759 4.15234 81.7205 5.49609H83.5427ZM93.9673 9H91.6528V2.32617H89.561V0.433594H96.0532V2.32617H93.9673V9ZM106.9 9H104.573V5.50781H101.884V9H99.5578V0.433594H101.884V3.60938H104.573V0.433594H106.9V9ZM116.123 9H111.037V0.433594H116.123V2.29102H113.351V3.63867H115.918V5.49609H113.351V7.11328H116.123V9ZM122.217 5.88281V9H119.903V0.433594H122.71C125.038 0.433594 126.202 1.27734 126.202 2.96484C126.202 3.95703 125.717 4.72461 124.749 5.26758L127.245 9H124.62L122.803 5.88281H122.217ZM122.217 4.14258H122.651C123.46 4.14258 123.864 3.78516 123.864 3.07031C123.864 2.48047 123.467 2.18555 122.674 2.18555H122.217V4.14258Z" fill="white"/>
<path d="M131.066 7.86328C131.066 7.48828 131.175 7.17578 131.394 6.92578C131.62 6.67578 131.956 6.55078 132.402 6.55078C132.847 6.55078 133.183 6.67578 133.41 6.92578C133.644 7.17578 133.761 7.48828 133.761 7.86328C133.761 8.22266 133.644 8.52344 133.41 8.76562C133.183 9.00781 132.847 9.12891 132.402 9.12891C131.956 9.12891 131.62 9.00781 131.394 8.76562C131.175 8.52344 131.066 8.22266 131.066 7.86328Z" fill="#FFA800"/>
</g>
<defs>
<filter id="filter0_i_17_119" x="-0.378906" y="0.310547" width="134.14" height="12.8184" filterUnits="userSpaceOnUse" color-interpolation-filters="sRGB">
<feFlood flood-opacity="0" result="BackgroundImageFix"/>
<feBlend mode="normal" in="SourceGraphic" in2="BackgroundImageFix" result="shape"/>
<feColorMatrix in="SourceAlpha" type="matrix" values="0 0 0 0 0 0 0 0 0 0 0 0 0 0 0 0 0 0 127 0" result="hardAlpha"/>
<feOffset dx="-1" dy="4"/>
<feGaussianBlur stdDeviation="2"/>
<feComposite in2="hardAlpha" operator="arithmetic" k2="-1" k3="1"/>
<feColorMatrix type="matrix" values="0 0 0 0 0 0 0 0 0 0 0 0 0 0 0 0 0 0 0.1 0"/>
<feBlend mode="normal" in2="shape" result="effect1_innerShadow_17_119"/>
</filter>
</defs>
</svg>
