<svg width="59" height="25" viewBox="0 0 59 25" fill="none" xmlns="http://www.w3.org/2000/svg">
<g filter="url(#filter0_i_21_120)">
<path d="M14.4219 17.9219C14.4219 19.9323 13.6927 21.5 12.2344 22.625C10.776 23.75 8.79688 24.3125 6.29688 24.3125C3.58854 24.3125 1.50521 23.9635 0.046875 23.2656V20.7031C0.984375 21.099 2.00521 21.4115 3.10938 21.6406C4.21354 21.8698 5.30729 21.9844 6.39062 21.9844C8.16146 21.9844 9.49479 21.651 10.3906 20.9844C11.2865 20.3073 11.7344 19.3698 11.7344 18.1719C11.7344 17.3802 11.5729 16.7344 11.25 16.2344C10.9375 15.724 10.4062 15.2552 9.65625 14.8281C8.91667 14.401 7.78646 13.9167 6.26562 13.375C4.14062 12.6146 2.61979 11.7135 1.70312 10.6719C0.796875 9.63021 0.34375 8.27083 0.34375 6.59375C0.34375 4.83333 1.00521 3.43229 2.32812 2.39062C3.65104 1.34896 5.40104 0.828125 7.57812 0.828125C9.84896 0.828125 11.9375 1.24479 13.8438 2.07812L13.0156 4.39062C11.1302 3.59896 9.29688 3.20312 7.51562 3.20312C6.10938 3.20312 5.01042 3.50521 4.21875 4.10938C3.42708 4.71354 3.03125 5.55208 3.03125 6.625C3.03125 7.41667 3.17708 8.06771 3.46875 8.57812C3.76042 9.07812 4.25 9.54167 4.9375 9.96875C5.63542 10.3854 6.69792 10.849 8.125 11.3594C10.5208 12.2135 12.1667 13.1302 13.0625 14.1094C13.9688 15.0885 14.4219 16.3594 14.4219 17.9219ZM43.0938 24H35.7969L33.6094 14.0469C33.5052 13.6302 33.3385 12.8021 33.1094 11.5625C32.8906 10.3229 32.7292 9.28646 32.625 8.45312C32.5417 9.13021 32.4062 9.97396 32.2188 10.9844C32.0312 11.9844 31.8438 12.9062 31.6562 13.75C31.4792 14.5938 30.724 18.0104 29.3906 24H22.0938L16.4375 1.15625H22.3906L24.875 12.6094C25.4375 15.1406 25.8229 17.1562 26.0312 18.6562C26.1667 17.5938 26.4062 16.151 26.75 14.3281C27.1042 12.5052 27.4323 10.9948 27.7344 9.79688L29.75 1.15625H35.4688L37.4219 9.79688C37.7552 11.1823 38.0938 12.7812 38.4375 14.5938C38.7812 16.4062 39.0104 17.7604 39.125 18.6562C39.2604 17.5 39.6302 15.4948 40.2344 12.6406L42.7656 1.15625H48.7188L43.0938 24Z" fill="white"/>
<path d="M50.7148 21.082C50.7148 20.0039 51.0312 19.1719 51.6641 18.5859C52.3086 18 53.2402 17.707 54.459 17.707C55.6191 17.707 56.5098 18 57.1309 18.5859C57.752 19.1719 58.0625 20.0039 58.0625 21.082C58.0625 22.1367 57.7402 22.9629 57.0957 23.5605C56.4629 24.1465 55.584 24.4395 54.459 24.4395C53.2988 24.4395 52.3848 24.1465 51.7168 23.5605C51.0488 22.9746 50.7148 22.1484 50.7148 21.082Z" fill="#FFA800"/>
</g>
<defs>
<filter id="filter0_i_21_120" x="-0.953125" y="0.828125" width="59.0156" height="27.6113" filterUnits="userSpaceOnUse" color-interpolation-filters="sRGB">
<feFlood flood-opacity="0" result="BackgroundImageFix"/>
<feBlend mode="normal" in="SourceGraphic" in2="BackgroundImageFix" result="shape"/>
<feColorMatrix in="SourceAlpha" type="matrix" values="0 0 0 0 0 0 0 0 0 0 0 0 0 0 0 0 0 0 127 0" result="hardAlpha"/>
<feOffset dx="-1" dy="4"/>
<feGaussianBlur stdDeviation="2"/>
<feComposite in2="hardAlpha" operator="arithmetic" k2="-1" k3="1"/>
<feColorMatrix type="matrix" values="0 0 0 0 0 0 0 0 0 0 0 0 0 0 0 0 0 0 0.1 0"/>
<feBlend mode="normal" in2="shape" result="effect1_innerShadow_21_120"/>
</filter>
</defs>
</svg>
