<svg width="177" height="177" viewBox="0 0 177 177" fill="none" xmlns="http://www.w3.org/2000/svg">
<g filter="url(#filter0_di_46_663)">
<path d="M88 82L88 34" stroke="#5B5B5B" stroke-width="5" stroke-linecap="round"/>
<path d="M88 130L88 82" stroke="#5B5B5B" stroke-width="5" stroke-linecap="round"/>
<path d="M88 45L102 37" stroke="#5B5B5B" stroke-width="5" stroke-linecap="round"/>
<path d="M74 37L88 45" stroke="#5B5B5B" stroke-width="5" stroke-linecap="round"/>
<path d="M88 119L102 127" stroke="#5B5B5B" stroke-width="5" stroke-linecap="round"/>
<path d="M74 127L88 119" stroke="#5B5B5B" stroke-width="5" stroke-linecap="round"/>
<path d="M41.1801 94.9779L55.1083 103.102" stroke="#5B5B5B" stroke-width="5" stroke-linecap="round"/>
<path d="M55.1801 119.227L55.1083 103.102" stroke="#5B5B5B" stroke-width="5" stroke-linecap="round"/>
<path d="M87.1512 84.6022L128.72 60.6022" stroke="#5B5B5B" stroke-width="5" stroke-linecap="round"/>
<path d="M87.1512 84.6022L45.582 108.602" stroke="#5B5B5B" stroke-width="5" stroke-linecap="round"/>
<path d="M119.122 49.9779L119.194 66.1023" stroke="#5B5B5B" stroke-width="5" stroke-linecap="round"/>
<path d="M134.622 76.8247L120.694 68.7004" stroke="#5B5B5B" stroke-width="5" stroke-linecap="round"/>
<path d="M56.098 49.5L56.0262 65.6244" stroke="#5B5B5B" stroke-width="5" stroke-linecap="round"/>
<path d="M42.098 73.7487L56.0262 65.6244" stroke="#5B5B5B" stroke-width="5" stroke-linecap="round"/>
<path d="M88.0692 84.1243L129.638 108.124" stroke="#5B5B5B" stroke-width="5" stroke-linecap="round"/>
<path d="M88.0692 84.1243L46.5 60.1243" stroke="#5B5B5B" stroke-width="5" stroke-linecap="round"/>
<path d="M134.04 94.5L120.112 102.624" stroke="#5B5B5B" stroke-width="5" stroke-linecap="round"/>
<path d="M118.54 121.347L118.612 105.222" stroke="#5B5B5B" stroke-width="5" stroke-linecap="round"/>
</g>
<g filter="url(#filter1_di_46_663)">
<path d="M13.5668 10.5L13.5668 2" stroke="#5B5B5B" stroke-width="2" stroke-linecap="round"/>
<path d="M13.5668 19L13.5668 10.5" stroke="#5B5B5B" stroke-width="2" stroke-linecap="round"/>
<path d="M13.5668 3.94794L15.9655 2.53127" stroke="#5B5B5B" stroke-width="2" stroke-linecap="round"/>
<path d="M11.1681 2.53125L13.5668 3.94792" stroke="#5B5B5B" stroke-width="2" stroke-linecap="round"/>
<path d="M13.5668 17.0521L15.9655 18.4687" stroke="#5B5B5B" stroke-width="2" stroke-linecap="round"/>
<path d="M11.1681 18.4688L13.5668 17.0521" stroke="#5B5B5B" stroke-width="2" stroke-linecap="round"/>
<path d="M5.5448 12.7982L7.9312 14.2368" stroke="#5B5B5B" stroke-width="2" stroke-linecap="round"/>
<path d="M7.9436 17.0922L7.9313 14.2369" stroke="#5B5B5B" stroke-width="2" stroke-linecap="round"/>
<path d="M13.4214 10.9608L20.5437 6.71082" stroke="#5B5B5B" stroke-width="2" stroke-linecap="round"/>
<path d="M13.4214 10.9608L6.2991 15.2108" stroke="#5B5B5B" stroke-width="2" stroke-linecap="round"/>
<path d="M18.8992 4.82941L18.9115 7.68476" stroke="#5B5B5B" stroke-width="2" stroke-linecap="round"/>
<path d="M21.5549 9.58356L19.1685 8.14487" stroke="#5B5B5B" stroke-width="2" stroke-linecap="round"/>
<path d="M8.10083 4.74481L8.08853 7.60017" stroke="#5B5B5B" stroke-width="2" stroke-linecap="round"/>
<path d="M5.70215 9.03882L8.08855 7.60013" stroke="#5B5B5B" stroke-width="2" stroke-linecap="round"/>
<path d="M13.5786 10.8762L20.7009 15.1262" stroke="#5B5B5B" stroke-width="2" stroke-linecap="round"/>
<path d="M13.5786 10.8762L6.45633 6.62616" stroke="#5B5B5B" stroke-width="2" stroke-linecap="round"/>
<path d="M21.4552 12.7136L19.0688 14.1523" stroke="#5B5B5B" stroke-width="2" stroke-linecap="round"/>
<path d="M18.7994 17.4677L18.8117 14.6123" stroke="#5B5B5B" stroke-width="2" stroke-linecap="round"/>
</g>
<g filter="url(#filter2_di_46_663)">
<path d="M163.567 159.5V151" stroke="#5B5B5B" stroke-width="2" stroke-linecap="round"/>
<path d="M163.567 168V159.5" stroke="#5B5B5B" stroke-width="2" stroke-linecap="round"/>
<path d="M163.567 152.948L165.965 151.531" stroke="#5B5B5B" stroke-width="2" stroke-linecap="round"/>
<path d="M161.168 151.531L163.567 152.948" stroke="#5B5B5B" stroke-width="2" stroke-linecap="round"/>
<path d="M163.567 166.052L165.965 167.469" stroke="#5B5B5B" stroke-width="2" stroke-linecap="round"/>
<path d="M161.168 167.469L163.567 166.052" stroke="#5B5B5B" stroke-width="2" stroke-linecap="round"/>
<path d="M155.545 161.798L157.931 163.237" stroke="#5B5B5B" stroke-width="2" stroke-linecap="round"/>
<path d="M157.944 166.092L157.931 163.237" stroke="#5B5B5B" stroke-width="2" stroke-linecap="round"/>
<path d="M163.421 159.961L170.544 155.711" stroke="#5B5B5B" stroke-width="2" stroke-linecap="round"/>
<path d="M163.421 159.961L156.299 164.211" stroke="#5B5B5B" stroke-width="2" stroke-linecap="round"/>
<path d="M168.899 153.829L168.911 156.685" stroke="#5B5B5B" stroke-width="2" stroke-linecap="round"/>
<path d="M171.555 158.584L169.169 157.145" stroke="#5B5B5B" stroke-width="2" stroke-linecap="round"/>
<path d="M158.101 153.745L158.089 156.6" stroke="#5B5B5B" stroke-width="2" stroke-linecap="round"/>
<path d="M155.702 158.039L158.089 156.6" stroke="#5B5B5B" stroke-width="2" stroke-linecap="round"/>
<path d="M163.579 159.876L170.701 164.126" stroke="#5B5B5B" stroke-width="2" stroke-linecap="round"/>
<path d="M163.579 159.876L156.456 155.626" stroke="#5B5B5B" stroke-width="2" stroke-linecap="round"/>
<path d="M171.455 161.714L169.069 163.152" stroke="#5B5B5B" stroke-width="2" stroke-linecap="round"/>
<path d="M168.799 166.468L168.812 163.612" stroke="#5B5B5B" stroke-width="2" stroke-linecap="round"/>
</g>
<g filter="url(#filter3_di_46_663)">
<path d="M13.5668 159.5L13.5668 151" stroke="#5B5B5B" stroke-width="2" stroke-linecap="round"/>
<path d="M13.5668 168L13.5668 159.5" stroke="#5B5B5B" stroke-width="2" stroke-linecap="round"/>
<path d="M13.5668 152.948L15.9655 151.531" stroke="#5B5B5B" stroke-width="2" stroke-linecap="round"/>
<path d="M11.1681 151.531L13.5668 152.948" stroke="#5B5B5B" stroke-width="2" stroke-linecap="round"/>
<path d="M13.5668 166.052L15.9655 167.469" stroke="#5B5B5B" stroke-width="2" stroke-linecap="round"/>
<path d="M11.1681 167.469L13.5668 166.052" stroke="#5B5B5B" stroke-width="2" stroke-linecap="round"/>
<path d="M5.5448 161.798L7.9312 163.237" stroke="#5B5B5B" stroke-width="2" stroke-linecap="round"/>
<path d="M7.9436 166.092L7.9313 163.237" stroke="#5B5B5B" stroke-width="2" stroke-linecap="round"/>
<path d="M13.4214 159.961L20.5437 155.711" stroke="#5B5B5B" stroke-width="2" stroke-linecap="round"/>
<path d="M13.4214 159.961L6.2991 164.211" stroke="#5B5B5B" stroke-width="2" stroke-linecap="round"/>
<path d="M18.8992 153.829L18.9115 156.685" stroke="#5B5B5B" stroke-width="2" stroke-linecap="round"/>
<path d="M21.5549 158.584L19.1685 157.145" stroke="#5B5B5B" stroke-width="2" stroke-linecap="round"/>
<path d="M8.10083 153.745L8.08853 156.6" stroke="#5B5B5B" stroke-width="2" stroke-linecap="round"/>
<path d="M5.70215 158.039L8.08855 156.6" stroke="#5B5B5B" stroke-width="2" stroke-linecap="round"/>
<path d="M13.5786 159.876L20.7009 164.126" stroke="#5B5B5B" stroke-width="2" stroke-linecap="round"/>
<path d="M13.5786 159.876L6.45633 155.626" stroke="#5B5B5B" stroke-width="2" stroke-linecap="round"/>
<path d="M21.4552 161.714L19.0688 163.152" stroke="#5B5B5B" stroke-width="2" stroke-linecap="round"/>
<path d="M18.7994 166.468L18.8117 163.612" stroke="#5B5B5B" stroke-width="2" stroke-linecap="round"/>
</g>
<g filter="url(#filter4_di_46_663)">
<path d="M163.567 9.5V1" stroke="#5B5B5B" stroke-width="2" stroke-linecap="round"/>
<path d="M163.567 18V9.5" stroke="#5B5B5B" stroke-width="2" stroke-linecap="round"/>
<path d="M163.567 2.94794L165.965 1.53127" stroke="#5B5B5B" stroke-width="2" stroke-linecap="round"/>
<path d="M161.168 1.53125L163.567 2.94792" stroke="#5B5B5B" stroke-width="2" stroke-linecap="round"/>
<path d="M163.567 16.0521L165.965 17.4687" stroke="#5B5B5B" stroke-width="2" stroke-linecap="round"/>
<path d="M161.168 17.4688L163.567 16.0521" stroke="#5B5B5B" stroke-width="2" stroke-linecap="round"/>
<path d="M155.545 11.7982L157.931 13.2368" stroke="#5B5B5B" stroke-width="2" stroke-linecap="round"/>
<path d="M157.944 16.0922L157.931 13.2369" stroke="#5B5B5B" stroke-width="2" stroke-linecap="round"/>
<path d="M163.421 9.96082L170.544 5.71082" stroke="#5B5B5B" stroke-width="2" stroke-linecap="round"/>
<path d="M163.421 9.96082L156.299 14.2108" stroke="#5B5B5B" stroke-width="2" stroke-linecap="round"/>
<path d="M168.899 3.82941L168.911 6.68476" stroke="#5B5B5B" stroke-width="2" stroke-linecap="round"/>
<path d="M171.555 8.58356L169.169 7.14487" stroke="#5B5B5B" stroke-width="2" stroke-linecap="round"/>
<path d="M158.101 3.74481L158.089 6.60017" stroke="#5B5B5B" stroke-width="2" stroke-linecap="round"/>
<path d="M155.702 8.03882L158.089 6.60013" stroke="#5B5B5B" stroke-width="2" stroke-linecap="round"/>
<path d="M163.579 9.87616L170.701 14.1262" stroke="#5B5B5B" stroke-width="2" stroke-linecap="round"/>
<path d="M163.579 9.87616L156.456 5.62616" stroke="#5B5B5B" stroke-width="2" stroke-linecap="round"/>
<path d="M171.455 11.7136L169.069 13.1523" stroke="#5B5B5B" stroke-width="2" stroke-linecap="round"/>
<path d="M168.799 16.4677L168.812 13.6123" stroke="#5B5B5B" stroke-width="2" stroke-linecap="round"/>
</g>
<defs>
<filter id="filter0_di_46_663" x="34.6797" y="31.5" width="106.443" height="109" filterUnits="userSpaceOnUse" color-interpolation-filters="sRGB">
<feFlood flood-opacity="0" result="BackgroundImageFix"/>
<feColorMatrix in="SourceAlpha" type="matrix" values="0 0 0 0 0 0 0 0 0 0 0 0 0 0 0 0 0 0 127 0" result="hardAlpha"/>
<feOffset dy="4"/>
<feGaussianBlur stdDeviation="2"/>
<feComposite in2="hardAlpha" operator="out"/>
<feColorMatrix type="matrix" values="0 0 0 0 0 0 0 0 0 0 0 0 0 0 0 0 0 0 0.25 0"/>
<feBlend mode="normal" in2="BackgroundImageFix" result="effect1_dropShadow_46_663"/>
<feBlend mode="normal" in="SourceGraphic" in2="effect1_dropShadow_46_663" result="shape"/>
<feColorMatrix in="SourceAlpha" type="matrix" values="0 0 0 0 0 0 0 0 0 0 0 0 0 0 0 0 0 0 127 0" result="hardAlpha"/>
<feOffset dy="4"/>
<feGaussianBlur stdDeviation="2"/>
<feComposite in2="hardAlpha" operator="arithmetic" k2="-1" k3="1"/>
<feColorMatrix type="matrix" values="0 0 0 0 0 0 0 0 0 0 0 0 0 0 0 0 0 0 0.25 0"/>
<feBlend mode="normal" in2="shape" result="effect2_innerShadow_46_663"/>
</filter>
<filter id="filter1_di_46_663" x="0.557129" y="1" width="25.9855" height="27" filterUnits="userSpaceOnUse" color-interpolation-filters="sRGB">
<feFlood flood-opacity="0" result="BackgroundImageFix"/>
<feColorMatrix in="SourceAlpha" type="matrix" values="0 0 0 0 0 0 0 0 0 0 0 0 0 0 0 0 0 0 127 0" result="hardAlpha"/>
<feOffset dy="4"/>
<feGaussianBlur stdDeviation="2"/>
<feComposite in2="hardAlpha" operator="out"/>
<feColorMatrix type="matrix" values="0 0 0 0 0 0 0 0 0 0 0 0 0 0 0 0 0 0 0.25 0"/>
<feBlend mode="normal" in2="BackgroundImageFix" result="effect1_dropShadow_46_663"/>
<feBlend mode="normal" in="SourceGraphic" in2="effect1_dropShadow_46_663" result="shape"/>
<feColorMatrix in="SourceAlpha" type="matrix" values="0 0 0 0 0 0 0 0 0 0 0 0 0 0 0 0 0 0 127 0" result="hardAlpha"/>
<feOffset dy="4"/>
<feGaussianBlur stdDeviation="2"/>
<feComposite in2="hardAlpha" operator="arithmetic" k2="-1" k3="1"/>
<feColorMatrix type="matrix" values="0 0 0 0 0 0 0 0 0 0 0 0 0 0 0 0 0 0 0.25 0"/>
<feBlend mode="normal" in2="shape" result="effect2_innerShadow_46_663"/>
</filter>
<filter id="filter2_di_46_663" x="150.557" y="150" width="25.9855" height="27" filterUnits="userSpaceOnUse" color-interpolation-filters="sRGB">
<feFlood flood-opacity="0" result="BackgroundImageFix"/>
<feColorMatrix in="SourceAlpha" type="matrix" values="0 0 0 0 0 0 0 0 0 0 0 0 0 0 0 0 0 0 127 0" result="hardAlpha"/>
<feOffset dy="4"/>
<feGaussianBlur stdDeviation="2"/>
<feComposite in2="hardAlpha" operator="out"/>
<feColorMatrix type="matrix" values="0 0 0 0 0 0 0 0 0 0 0 0 0 0 0 0 0 0 0.25 0"/>
<feBlend mode="normal" in2="BackgroundImageFix" result="effect1_dropShadow_46_663"/>
<feBlend mode="normal" in="SourceGraphic" in2="effect1_dropShadow_46_663" result="shape"/>
<feColorMatrix in="SourceAlpha" type="matrix" values="0 0 0 0 0 0 0 0 0 0 0 0 0 0 0 0 0 0 127 0" result="hardAlpha"/>
<feOffset dy="4"/>
<feGaussianBlur stdDeviation="2"/>
<feComposite in2="hardAlpha" operator="arithmetic" k2="-1" k3="1"/>
<feColorMatrix type="matrix" values="0 0 0 0 0 0 0 0 0 0 0 0 0 0 0 0 0 0 0.25 0"/>
<feBlend mode="normal" in2="shape" result="effect2_innerShadow_46_663"/>
</filter>
<filter id="filter3_di_46_663" x="0.557129" y="150" width="25.9855" height="27" filterUnits="userSpaceOnUse" color-interpolation-filters="sRGB">
<feFlood flood-opacity="0" result="BackgroundImageFix"/>
<feColorMatrix in="SourceAlpha" type="matrix" values="0 0 0 0 0 0 0 0 0 0 0 0 0 0 0 0 0 0 127 0" result="hardAlpha"/>
<feOffset dy="4"/>
<feGaussianBlur stdDeviation="2"/>
<feComposite in2="hardAlpha" operator="out"/>
<feColorMatrix type="matrix" values="0 0 0 0 0 0 0 0 0 0 0 0 0 0 0 0 0 0 0.25 0"/>
<feBlend mode="normal" in2="BackgroundImageFix" result="effect1_dropShadow_46_663"/>
<feBlend mode="normal" in="SourceGraphic" in2="effect1_dropShadow_46_663" result="shape"/>
<feColorMatrix in="SourceAlpha" type="matrix" values="0 0 0 0 0 0 0 0 0 0 0 0 0 0 0 0 0 0 127 0" result="hardAlpha"/>
<feOffset dy="4"/>
<feGaussianBlur stdDeviation="2"/>
<feComposite in2="hardAlpha" operator="arithmetic" k2="-1" k3="1"/>
<feColorMatrix type="matrix" values="0 0 0 0 0 0 0 0 0 0 0 0 0 0 0 0 0 0 0.25 0"/>
<feBlend mode="normal" in2="shape" result="effect2_innerShadow_46_663"/>
</filter>
<filter id="filter4_di_46_663" x="150.557" y="0" width="25.9855" height="27" filterUnits="userSpaceOnUse" color-interpolation-filters="sRGB">
<feFlood flood-opacity="0" result="BackgroundImageFix"/>
<feColorMatrix in="SourceAlpha" type="matrix" values="0 0 0 0 0 0 0 0 0 0 0 0 0 0 0 0 0 0 127 0" result="hardAlpha"/>
<feOffset dy="4"/>
<feGaussianBlur stdDeviation="2"/>
<feComposite in2="hardAlpha" operator="out"/>
<feColorMatrix type="matrix" values="0 0 0 0 0 0 0 0 0 0 0 0 0 0 0 0 0 0 0.25 0"/>
<feBlend mode="normal" in2="BackgroundImageFix" result="effect1_dropShadow_46_663"/>
<feBlend mode="normal" in="SourceGraphic" in2="effect1_dropShadow_46_663" result="shape"/>
<feColorMatrix in="SourceAlpha" type="matrix" values="0 0 0 0 0 0 0 0 0 0 0 0 0 0 0 0 0 0 127 0" result="hardAlpha"/>
<feOffset dy="4"/>
<feGaussianBlur stdDeviation="2"/>
<feComposite in2="hardAlpha" operator="arithmetic" k2="-1" k3="1"/>
<feColorMatrix type="matrix" values="0 0 0 0 0 0 0 0 0 0 0 0 0 0 0 0 0 0 0.25 0"/>
<feBlend mode="normal" in2="shape" result="effect2_innerShadow_46_663"/>
</filter>
</defs>
</svg>
