<svg width="240" height="168" viewBox="0 0 240 168" fill="none" xmlns="http://www.w3.org/2000/svg">
<g filter="url(#filter0_di_41_296)">
<g filter="url(#filter1_i_41_296)">
<path d="M93.5 89V89C106.624 70.6714 134.553 72.9606 144.518 93.1818L145.013 94.1875L154.361 90.0908C171.195 82.7133 190.064 95.0455 190.064 113.425V113.425L193.829 112.553C201.889 110.685 210.309 113.572 215.526 119.993V119.993C226.109 133.019 218.494 152.612 201.892 155.072L200.631 155.258C199.545 155.419 198.449 155.5 197.351 155.5H162" stroke="#5B5B5B" stroke-width="3"/>
</g>
<g filter="url(#filter2_i_41_296)">
<path d="M98.3674 95.9835L99.1112 96.84L100.138 96.3576L106.793 93.2306C122.012 86.0794 139.5 97.1846 139.5 114V116.012L141.428 115.438L144.417 114.547C155.366 111.286 167.018 116.77 171.483 127.286C177.766 142.087 166.903 158.5 150.824 158.5H147.5H42.5493C33.9658 158.5 26.1696 153.497 22.5932 145.694C14.7817 128.651 30.5591 110.291 48.5879 115.442L51.1699 116.18L50.4442 113.595C43.2136 87.8357 75.9622 70.1835 93.5047 90.384L98.3674 95.9835Z" stroke="#5B5B5B" stroke-width="3"/>
</g>
</g>
<defs>
<filter id="filter0_di_41_296" x="15.0396" y="75.033" width="210.86" height="92.967" filterUnits="userSpaceOnUse" color-interpolation-filters="sRGB">
<feFlood flood-opacity="0" result="BackgroundImageFix"/>
<feColorMatrix in="SourceAlpha" type="matrix" values="0 0 0 0 0 0 0 0 0 0 0 0 0 0 0 0 0 0 127 0" result="hardAlpha"/>
<feOffset dy="4"/>
<feGaussianBlur stdDeviation="2"/>
<feComposite in2="hardAlpha" operator="out"/>
<feColorMatrix type="matrix" values="0 0 0 0 0 0 0 0 0 0 0 0 0 0 0 0 0 0 0.25 0"/>
<feBlend mode="normal" in2="BackgroundImageFix" result="effect1_dropShadow_41_296"/>
<feBlend mode="normal" in="SourceGraphic" in2="effect1_dropShadow_41_296" result="shape"/>
<feColorMatrix in="SourceAlpha" type="matrix" values="0 0 0 0 0 0 0 0 0 0 0 0 0 0 0 0 0 0 127 0" result="hardAlpha"/>
<feOffset dy="4"/>
<feGaussianBlur stdDeviation="2"/>
<feComposite in2="hardAlpha" operator="arithmetic" k2="-1" k3="1"/>
<feColorMatrix type="matrix" values="0 0 0 0 0 0 0 0 0 0 0 0 0 0 0 0 0 0 0.25 0"/>
<feBlend mode="normal" in2="shape" result="effect2_innerShadow_41_296"/>
</filter>
<filter id="filter1_i_41_296" x="92.2804" y="75.033" width="133.619" height="85.967" filterUnits="userSpaceOnUse" color-interpolation-filters="sRGB">
<feFlood flood-opacity="0" result="BackgroundImageFix"/>
<feBlend mode="normal" in="SourceGraphic" in2="BackgroundImageFix" result="shape"/>
<feColorMatrix in="SourceAlpha" type="matrix" values="0 0 0 0 0 0 0 0 0 0 0 0 0 0 0 0 0 0 127 0" result="hardAlpha"/>
<feOffset dx="4" dy="4"/>
<feGaussianBlur stdDeviation="2"/>
<feComposite in2="hardAlpha" operator="arithmetic" k2="-1" k3="1"/>
<feColorMatrix type="matrix" values="0 0 0 0 0 0 0 0 0 0 0 0 0 0 0 0 0 0 0.25 0"/>
<feBlend mode="normal" in2="shape" result="effect1_innerShadow_41_296"/>
</filter>
<filter id="filter2_i_41_296" x="19.0396" y="80.112" width="159.753" height="83.888" filterUnits="userSpaceOnUse" color-interpolation-filters="sRGB">
<feFlood flood-opacity="0" result="BackgroundImageFix"/>
<feBlend mode="normal" in="SourceGraphic" in2="BackgroundImageFix" result="shape"/>
<feColorMatrix in="SourceAlpha" type="matrix" values="0 0 0 0 0 0 0 0 0 0 0 0 0 0 0 0 0 0 127 0" result="hardAlpha"/>
<feOffset dx="4" dy="4"/>
<feGaussianBlur stdDeviation="2"/>
<feComposite in2="hardAlpha" operator="arithmetic" k2="-1" k3="1"/>
<feColorMatrix type="matrix" values="0 0 0 0 0 0 0 0 0 0 0 0 0 0 0 0 0 0 0.25 0"/>
<feBlend mode="normal" in2="shape" result="effect1_innerShadow_41_296"/>
</filter>
</defs>
</svg>
