<svg width="217" height="170" viewBox="0 0 217 170" fill="none" xmlns="http://www.w3.org/2000/svg">
<g filter="url(#filter0_di_6_66)">
<path d="M99.5 95L94.6373 89.4005C76.045 67.9912 41.3368 86.6997 49 114C29.7404 108.497 12.8839 128.11 21.2296 146.319C25.0504 154.655 33.3793 160 42.5493 160H147.5H150.824C167.978 160 179.567 142.49 172.863 126.7C168.1 115.481 155.67 109.63 143.989 113.11L141 114C141 96.0854 122.369 84.2544 106.155 91.873L99.5 95Z" stroke="#5B5B5B" stroke-width="3"/>
<g filter="url(#filter1_ii_6_66)">
<path d="M171.307 123.902C174.329 112.585 173.283 100.566 168.349 89.9422C163.416 79.3183 154.91 70.7635 144.314 65.7704C133.718 60.7772 121.705 59.6626 110.372 62.621C99.0381 65.5794 89.1028 72.423 82.2992 81.9579" stroke="#5B5B5B" stroke-width="3"/>
</g>
<path d="M123 24V57.3873" stroke="#5B5B5B" stroke-width="3" stroke-linecap="round"/>
<path d="M61 49L84.6084 72.6084" stroke="#5B5B5B" stroke-width="3" stroke-linecap="round"/>
<path d="M93 46L99.3889 61.4242" stroke="#5B5B5B" stroke-width="3" stroke-linecap="round"/>
<path d="M188.424 84L173 90.3889" stroke="#5B5B5B" stroke-width="3" stroke-linecap="round"/>
<path d="M153 46L146.611 61.4242" stroke="#5B5B5B" stroke-width="3" stroke-linecap="round"/>
<path d="M184.608 49L161 72.6084" stroke="#5B5B5B" stroke-width="3" stroke-linecap="round"/>
<path d="M211.387 108H178" stroke="#5B5B5B" stroke-width="3" stroke-linecap="round"/>
</g>
<defs>
<filter id="filter0_di_6_66" x="13.5358" y="22.5" width="203.351" height="147" filterUnits="userSpaceOnUse" color-interpolation-filters="sRGB">
<feFlood flood-opacity="0" result="BackgroundImageFix"/>
<feColorMatrix in="SourceAlpha" type="matrix" values="0 0 0 0 0 0 0 0 0 0 0 0 0 0 0 0 0 0 127 0" result="hardAlpha"/>
<feOffset dy="4"/>
<feGaussianBlur stdDeviation="2"/>
<feComposite in2="hardAlpha" operator="out"/>
<feColorMatrix type="matrix" values="0 0 0 0 0 0 0 0 0 0 0 0 0 0 0 0 0 0 0.25 0"/>
<feBlend mode="normal" in2="BackgroundImageFix" result="effect1_dropShadow_6_66"/>
<feBlend mode="normal" in="SourceGraphic" in2="effect1_dropShadow_6_66" result="shape"/>
<feColorMatrix in="SourceAlpha" type="matrix" values="0 0 0 0 0 0 0 0 0 0 0 0 0 0 0 0 0 0 127 0" result="hardAlpha"/>
<feOffset dy="4"/>
<feGaussianBlur stdDeviation="2"/>
<feComposite in2="hardAlpha" operator="arithmetic" k2="-1" k3="1"/>
<feColorMatrix type="matrix" values="0 0 0 0 0 0 0 0 0 0 0 0 0 0 0 0 0 0 0.25 0"/>
<feBlend mode="normal" in2="shape" result="effect2_innerShadow_6_66"/>
</filter>
<filter id="filter1_ii_6_66" x="77.0781" y="59.5" width="97.4219" height="68.7886" filterUnits="userSpaceOnUse" color-interpolation-filters="sRGB">
<feFlood flood-opacity="0" result="BackgroundImageFix"/>
<feBlend mode="normal" in="SourceGraphic" in2="BackgroundImageFix" result="shape"/>
<feColorMatrix in="SourceAlpha" type="matrix" values="0 0 0 0 0 0 0 0 0 0 0 0 0 0 0 0 0 0 127 0" result="hardAlpha"/>
<feOffset dx="-4" dy="4"/>
<feGaussianBlur stdDeviation="2"/>
<feComposite in2="hardAlpha" operator="arithmetic" k2="-1" k3="1"/>
<feColorMatrix type="matrix" values="0 0 0 0 0 0 0 0 0 0 0 0 0 0 0 0 0 0 0.1 0"/>
<feBlend mode="normal" in2="shape" result="effect1_innerShadow_6_66"/>
<feColorMatrix in="SourceAlpha" type="matrix" values="0 0 0 0 0 0 0 0 0 0 0 0 0 0 0 0 0 0 127 0" result="hardAlpha"/>
<feOffset dx="-4" dy="4"/>
<feGaussianBlur stdDeviation="2"/>
<feComposite in2="hardAlpha" operator="arithmetic" k2="-1" k3="1"/>
<feColorMatrix type="matrix" values="0 0 0 0 0 0 0 0 0 0 0 0 0 0 0 0 0 0 0.15 0"/>
<feBlend mode="normal" in2="effect1_innerShadow_6_66" result="effect2_innerShadow_6_66"/>
</filter>
</defs>
</svg>
