<svg width="207" height="170" viewBox="0 0 207 170" fill="none" xmlns="http://www.w3.org/2000/svg">
<g filter="url(#filter0_di_47_713)">
<path d="M99.5 95L94.6373 89.4005C76.045 67.9912 41.3368 86.6997 49 114C29.7404 108.497 12.8839 128.11 21.2296 146.319C25.0504 154.655 33.3793 160 42.5493 160H147.5H150.824C167.978 160 179.567 142.49 172.863 126.7C168.1 115.481 155.67 109.63 143.989 113.11L141 114C141 96.0854 122.369 84.2544 106.155 91.873L99.5 95Z" stroke="#5B5B5B" stroke-width="3" shape-rendering="crispEdges"/>
</g>
<g filter="url(#filter1_di_47_713)">
<path d="M163.952 50.75L160.311 46.9155C151.138 37.254 135.198 46.5638 139.107 59.3L137.833 58.967C128.94 56.6431 121.455 65.8817 125.572 74.0989C127.385 77.716 131.084 80 135.13 80H187.567H189.914C197.883 80 203.162 71.7307 199.807 64.5018C197.568 59.6784 192.177 57.1726 187.047 58.5704L184.369 59.3C184.369 51.1026 175.983 45.5792 168.452 48.816L163.952 50.75Z" stroke="#5B5B5B" stroke-width="3" shape-rendering="crispEdges"/>
</g>
<defs>
<filter id="filter0_di_47_713" x="13.5358" y="78.604" width="166.758" height="90.896" filterUnits="userSpaceOnUse" color-interpolation-filters="sRGB">
<feFlood flood-opacity="0" result="BackgroundImageFix"/>
<feColorMatrix in="SourceAlpha" type="matrix" values="0 0 0 0 0 0 0 0 0 0 0 0 0 0 0 0 0 0 127 0" result="hardAlpha"/>
<feOffset dy="4"/>
<feGaussianBlur stdDeviation="2"/>
<feComposite in2="hardAlpha" operator="out"/>
<feColorMatrix type="matrix" values="0 0 0 0 0 0 0 0 0 0 0 0 0 0 0 0 0 0 0.25 0"/>
<feBlend mode="normal" in2="BackgroundImageFix" result="effect1_dropShadow_47_713"/>
<feBlend mode="normal" in="SourceGraphic" in2="effect1_dropShadow_47_713" result="shape"/>
<feColorMatrix in="SourceAlpha" type="matrix" values="0 0 0 0 0 0 0 0 0 0 0 0 0 0 0 0 0 0 127 0" result="hardAlpha"/>
<feOffset dy="4"/>
<feGaussianBlur stdDeviation="2"/>
<feComposite in2="hardAlpha" operator="arithmetic" k2="-1" k3="1"/>
<feColorMatrix type="matrix" values="0 0 0 0 0 0 0 0 0 0 0 0 0 0 0 0 0 0 0.25 0"/>
<feBlend mode="normal" in2="shape" result="effect2_innerShadow_47_713"/>
</filter>
<filter id="filter1_di_47_713" x="118.908" y="41.4089" width="87.4274" height="48.0911" filterUnits="userSpaceOnUse" color-interpolation-filters="sRGB">
<feFlood flood-opacity="0" result="BackgroundImageFix"/>
<feColorMatrix in="SourceAlpha" type="matrix" values="0 0 0 0 0 0 0 0 0 0 0 0 0 0 0 0 0 0 127 0" result="hardAlpha"/>
<feOffset dy="4"/>
<feGaussianBlur stdDeviation="2"/>
<feComposite in2="hardAlpha" operator="out"/>
<feColorMatrix type="matrix" values="0 0 0 0 0 0 0 0 0 0 0 0 0 0 0 0 0 0 0.25 0"/>
<feBlend mode="normal" in2="BackgroundImageFix" result="effect1_dropShadow_47_713"/>
<feBlend mode="normal" in="SourceGraphic" in2="effect1_dropShadow_47_713" result="shape"/>
<feColorMatrix in="SourceAlpha" type="matrix" values="0 0 0 0 0 0 0 0 0 0 0 0 0 0 0 0 0 0 127 0" result="hardAlpha"/>
<feOffset dy="4"/>
<feGaussianBlur stdDeviation="2"/>
<feComposite in2="hardAlpha" operator="arithmetic" k2="-1" k3="1"/>
<feColorMatrix type="matrix" values="0 0 0 0 0 0 0 0 0 0 0 0 0 0 0 0 0 0 0.25 0"/>
<feBlend mode="normal" in2="shape" result="effect2_innerShadow_47_713"/>
</filter>
</defs>
</svg>
